<svg width="21" height="21" viewBox="0 0 21 21" fill="none" xmlns="http://www.w3.org/2000/svg">
<path d="M19.7502 10.2502C19.7537 11.57 19.4453 12.872 18.8502 14.0502C18.1447 15.4619 17.06 16.6493 15.7177 17.4794C14.3754 18.3095 12.8285 18.7495 11.2502 18.7501C9.93038 18.7536 8.62836 18.4452 7.45024 17.8502L1.75024 19.7501L3.65024 14.0502C3.05518 12.872 2.7468 11.57 2.75024 10.2502C2.75085 8.67191 3.19086 7.125 4.02096 5.7827C4.85107 4.4404 6.0385 3.35572 7.45024 2.65015C8.62836 2.05508 9.93038 1.74671 11.2502 1.75015H11.7502C13.8346 1.86514 15.8033 2.74491 17.2794 4.22101C18.7555 5.69711 19.6353 7.6658 19.7502 9.75015V10.2502Z" stroke="#818AF9" stroke-width="2" stroke-linecap="round" stroke-linejoin="round"/>
</svg>
