<svg width="10" height="11" viewBox="0 0 10 11" fill="none" xmlns="http://www.w3.org/2000/svg">
<g clip-path="url(#clip0_1_102)">
<path d="M8.53398 5.36182C8.53398 5.57015 8.63801 5.98682 8.84609 6.61182C9.05416 7.23682 9.15819 7.65348 9.15819 7.86182C9.15819 8.28499 9.0948 8.68538 8.968 9.06299C8.84121 9.44059 8.65589 9.75146 8.41206 9.9956C8.16823 10.2397 7.89676 10.3618 7.59766 10.3618H3.22815C3.14363 10.3618 3.07048 10.3309 3.0087 10.269C2.94693 10.2072 2.91605 10.134 2.91605 10.0493C2.91605 9.96468 2.94693 9.89144 3.0087 9.82959C3.07048 9.76774 3.14363 9.73682 3.22815 9.73682C3.31919 9.73682 3.39396 9.70752 3.45248 9.64893C3.511 9.59033 3.54026 9.51546 3.54026 9.42432C3.54026 9.25505 3.47524 9.0581 3.34519 8.8335C3.21515 8.60889 3.0591 8.37777 2.87703 8.14014C2.69497 7.90251 2.51291 7.65674 2.33085 7.40283C2.14878 7.14893 1.99273 6.86898 1.86269 6.56299C1.73264 6.257 1.66762 5.96077 1.66762 5.67432C1.66762 5.18603 1.86269 4.78239 2.25282 4.46338C2.17479 4.229 1.97973 4.11182 1.66762 4.11182C1.47905 4.11182 1.28236 4.04508 1.07754 3.91162C0.87272 3.77816 0.71179 3.63818 0.59475 3.4917C0.47771 3.34521 0.419189 3.23942 0.419189 3.17432C0.419189 3.08968 0.450075 3.01644 0.511846 2.95459C0.573618 2.89274 0.646768 2.86182 0.731297 2.86182C0.783315 2.86182 0.838584 2.81624 0.897104 2.7251C0.955624 2.63395 1.02227 2.52002 1.09705 2.3833C1.17182 2.24658 1.25798 2.10824 1.35551 1.96826C1.45304 1.82829 1.58309 1.69808 1.74565 1.57764C1.9082 1.45719 2.09026 1.37419 2.29183 1.32861V0.361816C2.44138 0.361816 2.61694 0.477376 2.81851 0.708496C3.02008 0.939616 3.15013 1.17887 3.20865 1.42627C3.52076 1.55648 3.75809 1.78271 3.92064 2.10498C4.0832 2.42725 4.16448 2.78369 4.16448 3.17432C4.16448 3.36312 4.20512 3.54215 4.28639 3.71143C4.36767 3.8807 4.48309 4.03206 4.63264 4.16553C4.78219 4.29899 4.90411 4.3999 4.99839 4.46826C5.09267 4.53662 5.21134 4.61312 5.35439 4.69775C5.38039 4.71728 5.3999 4.73031 5.41291 4.73682C5.79003 4.95166 6.10214 5.15999 6.34923 5.36182C6.79788 5.73291 7.17013 6.1984 7.46599 6.7583C7.76184 7.3182 7.90976 7.7902 7.90976 8.17432C7.90976 8.20036 7.91301 8.22965 7.91952 8.26221C7.92602 8.29476 7.95528 8.34033 8.0073 8.39893C8.05931 8.45752 8.13084 8.48682 8.22187 8.48682C8.3129 8.48682 8.38768 8.43636 8.4462 8.33545C8.50472 8.23454 8.53398 8.07666 8.53398 7.86182C8.53398 7.63395 8.49171 7.40609 8.40718 7.17822C8.32266 6.95036 8.21862 6.73389 8.09508 6.52881C7.97153 6.32373 7.84799 6.11051 7.72445 5.88916C7.60091 5.66781 7.49687 5.40251 7.41234 5.09326C7.32781 4.78402 7.28555 4.45687 7.28555 4.11182C7.28555 3.79932 7.41559 3.51286 7.67568 3.25244C7.93577 2.99202 8.22187 2.86182 8.53398 2.86182C8.70954 2.86182 8.85746 2.92204 8.97776 3.04248C9.09805 3.16292 9.15819 3.31103 9.15819 3.48682C9.15819 3.59098 9.13869 3.68376 9.09967 3.76514C9.06066 3.84652 9.01027 3.92139 8.9485 3.98975C8.88672 4.05811 8.85259 4.0988 8.84609 4.11182C8.63801 4.45687 8.53398 4.87353 8.53398 5.36182Z" fill="#818AF9"/>
</g>
<defs>
<clipPath id="clip0_1_102">
<rect width="8.739" height="10" fill="white" transform="translate(0.419189 0.361816)"/>
</clipPath>
</defs>
</svg>
