<svg width="11" height="11" viewBox="0 0 11 11" fill="none" xmlns="http://www.w3.org/2000/svg">
<g clip-path="url(#clip0_1_104)">
<path d="M9.1879 10.4167C8.99873 10.4167 8.81445 10.3777 8.63506 10.2996C8.45568 10.2214 8.32358 10.1466 8.23878 10.075C8.15398 10.0033 8.05287 9.90893 7.93545 9.79175C7.51797 10.2084 6.89175 10.4167 6.05678 10.4167H1.36011C1.27531 10.4167 1.20192 10.3858 1.13995 10.324C1.07798 10.2621 1.047 10.1889 1.047 10.1042C1.047 10.0196 1.07798 9.94637 1.13995 9.88452C1.20192 9.82267 1.27531 9.79175 1.36011 9.79175C1.43839 9.79175 1.53134 9.71851 1.63898 9.57202C1.74661 9.42554 1.84935 9.23999 1.9472 9.01538C2.04504 8.79077 2.12821 8.52222 2.19671 8.20972C2.2652 7.89722 2.29945 7.59123 2.29945 7.29175C2.29945 7.12248 2.27825 6.97925 2.23584 6.86206C2.19344 6.74487 2.14126 6.64396 2.07929 6.55933C2.01732 6.47469 1.95535 6.38192 1.89338 6.28101C1.83141 6.18009 1.77922 6.03035 1.73682 5.83179C1.69442 5.63322 1.67322 5.39071 1.67322 5.10425C1.67322 4.93498 1.69442 4.79663 1.73682 4.68921C1.77922 4.58179 1.83141 4.50041 1.89338 4.44507C1.95535 4.38973 2.01732 4.33276 2.07929 4.27417C2.14126 4.21558 2.19344 4.12606 2.23584 4.00562C2.27825 3.88517 2.29945 3.73055 2.29945 3.54175C2.29945 3.12508 2.0907 2.91675 1.67322 2.91675C1.37968 2.91675 1.09755 2.80444 0.826843 2.57983C0.556132 2.35522 0.420776 2.15503 0.420776 1.97925C0.420776 1.82951 0.4909 1.68791 0.631148 1.55444C0.771396 1.42098 0.910013 1.35425 1.047 1.35425C1.15789 1.35425 1.26063 1.3217 1.35522 1.25659C1.4498 1.19149 1.5395 1.11336 1.6243 1.02222C1.7091 0.931071 1.80205 0.839925 1.90316 0.748779C2.00427 0.657633 2.14126 0.579508 2.31412 0.514404C2.48699 0.4493 2.69084 0.416748 2.92567 0.416748C3.23226 0.416748 3.48177 0.452555 3.6742 0.52417C3.86663 0.595784 4.01014 0.688558 4.10473 0.80249C4.19932 0.916422 4.27596 1.07593 4.33467 1.28101C4.39338 1.48608 4.43415 1.68953 4.45698 1.89136C4.47981 2.09318 4.52058 2.35034 4.57929 2.66284C4.638 2.97534 4.71301 3.26831 4.80434 3.54175C4.92828 3.91284 5.22019 4.38647 5.68007 4.96265C6.13995 5.53882 6.47427 5.89852 6.68301 6.04175C7.51797 6.59513 7.93545 7.42847 7.93545 8.54175C7.93545 8.86076 8.12136 9.14884 8.49318 9.40601C8.865 9.66317 9.30532 9.79175 9.81412 9.79175C9.98372 9.79175 10.1827 9.7592 10.411 9.69409C10.3523 9.92196 10.2088 10.0994 9.98046 10.2263C9.75215 10.3533 9.48797 10.4167 9.1879 10.4167ZM3.55189 7.29175C3.53232 7.39591 3.50623 7.53101 3.47361 7.69702C3.441 7.86304 3.37087 8.11532 3.26324 8.45386C3.15561 8.7924 3.04309 9.03003 2.92567 9.16675H4.17812C4.17812 8.8868 4.1455 8.64429 4.08027 8.43921C4.01504 8.23413 3.94328 8.08602 3.865 7.99487C3.78673 7.90373 3.71497 7.79793 3.64974 7.67749C3.58451 7.55705 3.55189 7.42847 3.55189 7.29175Z" fill="#818AF9"/>
</g>
<defs>
<clipPath id="clip0_1_104">
<rect width="10" height="10" fill="white" transform="translate(0.416748 0.416748)"/>
</clipPath>
</defs>
</svg>
