<svg width="15" height="15" viewBox="0 0 15 15" fill="none" xmlns="http://www.w3.org/2000/svg">
<g clip-path="url(#clip0_1_96)">
<path d="M12.8335 6.41659C12.8335 10.4999 7.5835 13.9999 7.5835 13.9999C7.5835 13.9999 2.3335 10.4999 2.3335 6.41659C2.3335 5.02421 2.88662 3.68885 3.87119 2.70428C4.85575 1.71972 6.19111 1.1666 7.5835 1.1666C8.97588 1.1666 10.3112 1.71972 11.2958 2.70428C12.2804 3.68885 12.8335 5.02421 12.8335 6.41659Z" stroke="#ACA3A3" stroke-linecap="round" stroke-linejoin="round"/>
<path d="M7.5835 8.1666C8.54999 8.1666 9.3335 7.38309 9.3335 6.4166C9.3335 5.4501 8.54999 4.6666 7.5835 4.6666C6.617 4.6666 5.8335 5.4501 5.8335 6.4166C5.8335 7.38309 6.617 8.1666 7.5835 8.1666Z" stroke="#ACA3A3" stroke-linecap="round" stroke-linejoin="round"/>
</g>
<defs>
<clipPath id="clip0_1_96">
<rect width="14" height="14" fill="white" transform="translate(0.583496 0.583435)"/>
</clipPath>
</defs>
</svg>
